<svg id="Layer_1" data-name="Layer 1" xmlns="http://www.w3.org/2000/svg" viewBox="0 0 38.93 30.57"><defs><style>.cls-1{fill:#fff;}.cls-2{fill:#111;}.cls-3,.cls-5{font-size:10.58px;fill:#fff;}.cls-3{font-family:Montserrat-Medium, Montserrat;font-weight:500;letter-spacing:0.03em;}.cls-4{letter-spacing:0.01em;}.cls-5{font-family:Sacramento-Regular, Sacramento;letter-spacing:0.08em;}</style></defs><path class="cls-1" d="M34.44,13.74c-1-1.8-3.22-3.36-4.41-2.68s-.92,3.36.12,5.16a3,3,0,0,0,2.32,1.72,1.34,1.34,0,0,1,1.12.65l4.8,8.32a.7.7,0,0,0,.82.32.68.68,0,0,0,.38-1l-4.82-8.34a1.36,1.36,0,0,1,0-1.3A2.94,2.94,0,0,0,34.44,13.74Z" transform="translate(-3.95 -10.72)"/><path class="cls-2" d="M30.19,14.27a3.61,3.61,0,0,0,.24.57c.09.18.19.36.29.54a6.37,6.37,0,0,0,.71,1,2.43,2.43,0,0,0,.44.41,1.81,1.81,0,0,0,.52.3,1.66,1.66,0,0,0,1.18,0,1.72,1.72,0,0,1-.59.2,1.56,1.56,0,0,1-.64-.07,2.39,2.39,0,0,1-1-.71,4.58,4.58,0,0,1-.7-1,3.64,3.64,0,0,1-.25-.57c0-.1-.07-.19-.1-.29A1.55,1.55,0,0,1,30.19,14.27Z" transform="translate(-3.95 -10.72)"/><path class="cls-1" d="M42.34,12.18l-1.72,3L40.31,15,42,12a.25.25,0,0,0-.1-.35h0a.26.26,0,0,0-.35.09l-1.72,3-.3-.17,1.72-3a.26.26,0,0,0-.09-.35h0a.26.26,0,0,0-.35.09l-1.73,3-.3-.17,1.72-3a.26.26,0,0,0-.09-.35l-.06,0a.25.25,0,0,0-.34.09l-2.86,5A1.6,1.6,0,0,0,37,17a1.41,1.41,0,0,1-.13,1.12l-4.74,8.22a.68.68,0,1,0,1.17.71l4.75-8.24a1.49,1.49,0,0,1,.91-.68,1.58,1.58,0,0,0,1-.76l2.86-4.94a.26.26,0,0,0-.1-.35l-.06,0A.25.25,0,0,0,42.34,12.18Z" transform="translate(-3.95 -10.72)"/><path class="cls-2" d="M37.74,17.15a2,2,0,0,1-.23-.71,1.25,1.25,0,0,1,0-.38.42.42,0,0,1,0-.1.36.36,0,0,1,0-.09l.06-.08.06-.07.42-.58.44-.58a5,5,0,0,1-.33.65,4.93,4.93,0,0,1-.4.61l-.06.07-.05.07a.35.35,0,0,0-.06.14,1.28,1.28,0,0,0-.06.34A3,3,0,0,0,37.74,17.15Z" transform="translate(-3.95 -10.72)"/><path class="cls-2" d="M36,23.13a.07.07,0,0,1-.07,0l-1.35-2.3a.08.08,0,0,1,0-.11.09.09,0,0,1,.12,0L36.08,23a.07.07,0,0,1,0,.11Z" transform="translate(-3.95 -10.72)"/><path class="cls-2" d="M37.13,21.9a.07.07,0,0,1-.07,0l-1.35-2.3a.08.08,0,0,1,0-.11.08.08,0,0,1,.12,0l1.34,2.29a.08.08,0,0,1,0,.12Z" transform="translate(-3.95 -10.72)"/><text class="cls-3" transform="translate(0 16.14)">Pu<tspan class="cls-4" x="15.34" y="0">r</tspan><tspan x="19.81" y="0">e</tspan></text><text class="cls-5" transform="translate(9.25 24.97)">delight</text></svg>